<svg width="520" height="438" viewBox="0 0 520 438" fill="none" xmlns="http://www.w3.org/2000/svg">
<g filter="url(#filter0_d_201_3)">
<path d="M255.665 1.02639C252.565 2.82639 251.865 8.92639 251.865 36.6264V63.8264L248.165 64.4264C219.565 69.2264 193.065 84.2264 164.765 111.726C123.065 152.126 86.4653 212.626 70.7653 266.926C64.3653 289.326 61.7653 315.126 65.6653 319.826C68.2653 323.126 73.5653 322.926 76.5653 319.526C78.5653 317.126 78.8653 315.726 78.8653 308.526C78.8653 254.226 132.165 157.226 187.165 111.326C207.665 94.1264 230.365 82.3264 248.065 79.6264L251.665 79.1264L252.065 96.6264L252.365 114.126L255.165 116.526C256.665 117.826 258.865 118.926 259.865 118.926C260.865 118.926 263.065 117.826 264.565 116.526L267.365 114.126L267.665 96.6264L268.065 79.1264L271.665 79.6264C278.465 80.6264 291.265 85.1264 300.065 89.5264C317.865 98.4264 334.365 111.326 353.165 130.926C362.765 140.926 365.065 142.926 367.565 142.926C371.465 142.926 374.865 139.226 374.865 135.126C374.865 132.526 372.965 130.026 362.665 119.326C332.765 88.4264 304.765 70.7264 276.865 65.5264C272.365 64.6264 268.465 63.9264 268.265 63.9264C268.065 63.9264 267.865 51.6264 267.865 36.6264C267.865 8.52639 267.165 2.72639 263.865 0.926387C261.465 -0.373613 257.865 -0.273613 255.665 1.02639Z" fill="#15284F"/>
<path d="M43.1653 86.4261C40.4653 88.3261 39.4653 92.3261 40.9653 95.2261C41.6653 96.4261 44.2653 99.7261 46.7653 102.526C52.5653 108.926 57.3653 117.026 60.6653 125.726C65.5653 138.826 63.6653 158.526 55.4653 179.726C51.2653 190.626 48.3653 196.426 35.3653 219.926C17.3653 252.426 11.6653 265.226 7.2653 283.226C-0.934699 317.026 6.2653 338.526 29.3653 349.326C40.1653 354.526 44.7653 355.326 61.4653 355.426H76.5653L81.2653 361.126C87.5653 368.926 100.065 378.026 112.965 384.326L123.765 389.526L119.565 393.626C109.465 403.326 99.9653 408.926 85.8653 413.326C81.1653 414.826 76.5653 416.726 75.6653 417.626C72.9653 420.026 73.3653 425.126 76.3653 427.926C78.7653 430.126 79.1653 430.226 84.7653 429.226C100.065 426.326 116.865 416.926 130.365 403.626L139.365 394.726L150.365 397.226C171.465 402.226 194.165 405.326 218.065 406.526L231.665 407.226L234.365 404.526C236.565 402.326 236.965 401.226 236.465 398.626C235.365 393.026 234.365 392.726 215.165 391.326C163.465 387.326 130.265 379.126 108.265 364.726C101.065 360.026 92.8653 352.926 92.8653 351.326C92.8653 350.826 95.6653 349.326 99.1653 348.026C102.565 346.726 107.965 344.326 111.065 342.826C114.165 341.226 117.065 340.326 117.365 340.826C118.365 342.526 128.965 345.926 136.465 347.026C144.365 348.126 154.965 347.126 166.465 344.226L172.565 342.726L180.865 346.926C225.765 369.526 293.965 369.526 338.865 346.926L347.165 342.726L353.265 344.226C364.765 347.126 375.365 348.126 383.265 347.026C390.765 345.926 401.365 342.526 402.365 340.826C402.665 340.326 405.565 341.226 408.665 342.826C411.765 344.426 417.165 346.726 420.665 347.926C424.065 349.126 426.865 350.426 426.865 350.826C426.765 353.326 415.065 363.026 405.865 368.126C379.265 382.826 338.965 390.526 277.465 392.526C259.065 393.126 256.365 393.426 254.665 395.126C251.865 397.926 252.265 403.326 255.665 405.926C258.265 408.126 258.765 408.126 278.865 407.526C316.265 406.226 345.265 403.026 369.365 397.326L380.365 394.726L389.365 403.626C402.865 416.926 419.665 426.326 434.965 429.226C440.565 430.226 440.965 430.126 443.365 427.926C446.365 425.126 446.765 420.026 444.165 417.626C443.165 416.826 438.065 414.726 432.865 413.026C421.465 409.326 410.565 403.126 402.065 395.426L395.865 389.726L407.565 383.926C421.265 377.126 431.265 369.726 438.365 361.326L443.365 355.326H458.365C475.165 355.426 482.165 354.026 492.165 348.726C503.965 342.426 511.265 333.226 514.465 320.926C517.765 308.026 514.365 284.426 506.265 263.726C501.565 251.826 498.065 244.926 484.565 220.426C462.365 180.326 456.465 163.926 456.565 142.426C456.565 134.826 457.165 131.026 458.765 126.526C461.865 117.926 467.165 108.826 472.765 102.726C475.365 99.8261 478.065 96.4261 478.765 95.2261C481.265 90.4261 477.365 84.9261 471.465 84.9261C468.065 84.9261 461.565 91.4261 454.265 102.126C444.965 115.926 441.465 127.426 441.565 143.426C441.665 166.726 449.365 188.426 471.565 228.026C493.765 267.426 502.265 292.226 500.565 312.526C499.665 324.726 491.665 334.026 478.565 338.126C471.265 340.426 453.465 341.826 452.465 340.126C452.065 339.526 452.465 336.426 453.365 333.226C455.965 324.126 456.465 304.426 454.365 291.526C448.565 254.426 428.065 207.126 399.665 165.126C389.865 150.726 386.865 148.726 381.465 153.026C377.465 156.226 377.965 160.226 383.465 168.026C412.065 208.326 434.765 259.626 439.965 295.726C441.465 306.626 440.765 323.726 438.365 331.226C436.565 336.826 436.365 337.026 433.665 336.526C430.865 335.926 417.465 330.626 415.065 329.126C414.065 328.426 414.065 327.626 415.265 324.826C417.665 318.926 418.165 312.326 416.465 309.126C412.565 301.626 403.765 304.526 402.465 313.626C401.465 321.426 401.065 321.526 393.265 315.826C389.465 313.026 385.365 309.826 384.165 308.726C382.965 307.626 379.165 306.026 375.665 305.326C372.165 304.526 361.365 301.326 351.665 298.226L333.865 292.526V289.226C333.865 281.826 325.965 279.126 320.865 284.826L318.365 287.726L307.165 284.826C274.765 276.626 244.965 276.626 212.565 284.826L201.365 287.726L198.765 284.626C193.965 278.926 185.865 281.826 185.865 289.326V292.526L168.165 298.226C158.365 301.326 147.565 304.526 144.065 305.326C140.565 306.026 136.765 307.626 135.565 308.726C134.365 309.826 130.265 313.026 126.465 315.826C118.665 321.526 118.265 321.426 117.265 313.626C115.965 304.526 107.165 301.626 103.265 309.126C101.565 312.326 102.065 318.926 104.465 324.826C106.165 328.926 106.465 328.626 96.1653 332.926C84.1653 337.926 72.8653 340.326 59.8653 340.326C40.7653 340.426 28.5653 335.126 22.3653 323.826C19.4653 318.626 19.3653 317.926 19.4653 306.926C19.5653 285.126 25.7653 268.126 48.0653 228.126C70.5653 187.626 78.0653 166.726 78.1653 143.426C78.2653 123.526 71.2653 106.626 56.0653 90.1261C50.7653 84.5261 47.3653 83.5261 43.1653 86.4261ZM281.865 295.026C294.365 296.726 312.165 301.426 336.665 309.326C349.465 313.426 363.165 317.626 367.165 318.526C372.765 319.926 375.865 321.426 381.065 325.326C389.165 331.426 388.565 332.226 375.865 332.226C365.765 332.226 357.965 330.426 328.865 321.526C272.365 304.126 247.365 304.126 190.865 321.526C161.765 330.426 153.965 332.226 143.865 332.226C131.165 332.226 130.565 331.426 138.665 325.326C143.865 321.426 146.965 319.926 152.565 318.526C156.565 317.626 170.265 313.426 183.065 309.326C230.165 294.126 251.765 291.026 281.865 295.026ZM283.365 325.526C293.865 327.226 306.365 330.226 318.865 334.126L326.365 336.526L318.865 339.226C283.965 351.726 238.665 352.026 202.965 339.826C198.365 338.326 194.465 336.826 194.165 336.626C193.965 336.426 199.365 334.626 206.165 332.626C237.165 323.426 257.765 321.626 283.365 325.526Z" fill="#15284F"/>
<path d="M139.165 255.026C134.865 256.626 133.865 259.726 133.865 271.226C133.865 281.926 133.865 282.126 136.865 285.126C139.365 287.526 140.465 288.026 142.665 287.526C147.965 286.226 148.865 283.926 148.865 271.026C148.865 262.426 148.465 258.826 147.365 257.226C145.765 254.926 142.165 253.926 139.165 255.026Z" fill="#15284F"/>
<path d="M376.165 254.726C371.865 255.426 370.865 258.426 370.865 271.026C370.865 283.926 371.765 286.226 377.065 287.526C379.265 288.026 380.365 287.526 382.865 285.126C385.865 282.126 385.865 282.026 385.865 271.126C385.865 261.726 385.565 259.826 383.865 257.726C381.765 254.926 379.665 254.126 376.165 254.726Z" fill="#15284F"/>
</g>
<defs>
<filter id="filter0_d_201_3" x="0" y="0" width="519.716" height="437.835" filterUnits="userSpaceOnUse" color-interpolation-filters="sRGB">
<feFlood flood-opacity="0" result="BackgroundImageFix"/>
<feColorMatrix in="SourceAlpha" type="matrix" values="0 0 0 0 0 0 0 0 0 0 0 0 0 0 0 0 0 0 127 0" result="hardAlpha"/>
<feOffset dy="4"/>
<feGaussianBlur stdDeviation="2"/>
<feComposite in2="hardAlpha" operator="out"/>
<feColorMatrix type="matrix" values="0 0 0 0 0 0 0 0 0 0 0 0 0 0 0 0 0 0 0.25 0"/>
<feBlend mode="normal" in2="BackgroundImageFix" result="effect1_dropShadow_201_3"/>
<feBlend mode="normal" in="SourceGraphic" in2="effect1_dropShadow_201_3" result="shape"/>
</filter>
</defs>
</svg>
